<svg xmlns="http://www.w3.org/2000/svg" viewBox="0 0 116.73 116.46"><defs><style>.a{fill:#19323f;}.b{fill:#fafbfb;}.c{fill:#344954;}.d{fill:#2d424c;}.e{fill:#344852;}.f{fill:#334651;}.g{fill:#4a5a62;}.h{fill:#556269;}.i{fill:#4f5e66;}.j{fill:#4e5e68;}</style></defs><path class="a" d="M58.22,116.46A58.19,58.19,0,0,1,0,57.91C.14,25.47,26.42-.19,59.34,0c31.94.18,57.55,26.42,57.39,58.78A58,58,0,0,1,58.22,116.46Z"/><path class="b" d="M36.58,62c-.16-10.22,3.09-19.62,6.93-28.88.77-1.86,10.73-3,11.58-1.3.64,1.3.23,2.5-1.12,3.83-7.22,7.07-9.49,15.78-7.17,25.54,1.48,6.27,5.18,9,11.37,9.05,6.59.06,10.24-2.5,11.83-9.06,2.32-9.57,0-18.16-6.76-25.3-1.18-1.25-2-2.16-1.53-3.69.56-1.85,2.24-.79,3.41-1,5.46-1,8.43.89,10.29,6.65,3,9.29,5.51,18.55,4.76,28.3-1,12.8-10,19.64-24.34,19.12-10.88-.39-19-9.17-19.24-20.77C36.57,63.63,36.58,62.8,36.58,62Z"/><path class="c" d="M51.9,79.84c-1.14-.52-2.61-.77-2.14-2.6.3-1.15.72-2.3,2.2-1.92,1.19.3,2.66.61,2.06,2.51C53.68,78.91,53.49,80.11,51.9,79.84Z"/><path class="d" d="M64.87,75.3c1.65-.21,1.86,1,2.13,2.12.4,1.58-.82,2-1.92,2.25-1.82.44-2.22-.9-2.38-2.26C62.52,75.83,63.92,75.75,64.87,75.3Z"/><path class="e" d="M75.66,68.45c-.21,1-.72,1.81-1.83,1.87a1.83,1.83,0,0,1-2.07-1.63c0-1.12.61-2.31,2-2.18A2,2,0,0,1,75.66,68.45Z"/><path class="f" d="M43,66.34a2.25,2.25,0,0,1,2,2c.27,1.22-.67,1.81-1.62,2-1.46.29-2.07-.84-2.2-2S42.38,67,43,66.34Z"/><path class="g" d="M73.83,55.38c.13-1,.79-1.31,1.71-1.25a1.16,1.16,0,0,1,1.18,1.25,1.45,1.45,0,1,1-2.89,0Z"/><path class="h" d="M42.9,55.62c-.17.88-.55,1.55-1.62,1.28a1.48,1.48,0,0,1-1.22-1.8c.12-.82.82-1,1.45-1C42.52,54,43,54.64,42.9,55.62Z"/><path class="i" d="M73.23,45.36c-.64-.21-1.12-.6-1-1.34a1.07,1.07,0,0,1,1.37-.88,1.1,1.1,0,0,1,1,1.31C74.51,45.13,73.91,45.38,73.23,45.36Z"/><path class="j" d="M43.54,43.1c.66.15,1.14.47,1.09,1.25a1,1,0,0,1-1.26,1c-.54-.09-1.33-.19-1.12-1.13A1.26,1.26,0,0,1,43.54,43.1Z"/></svg>