<svg xmlns="http://www.w3.org/2000/svg" viewBox="0 0 116.49 116.47"><defs><style>.a{fill:#19323f;}.b{fill:#fbfbfb;}.c{fill:#0f2a36;}.d{fill:#f8f8f8;}.e{fill:#18323e;}.f{fill:#f0f3f4;}.g{fill:#eceff0;}.h{fill:#f1f3f4;}.i{fill:#ebeeef;}</style></defs><path class="a" d="M116.49,58.47c-.17,32.77-26.07,58.19-59.09,58C25.19,116.28-.23,90.06,0,57.25.23,25.28,26.45-.23,58.85,0A57.88,57.88,0,0,1,116.49,58.47Z"/><path class="b" d="M58.3,31.23c6.32,0,12.64-.05,19,0,5,.06,7,2,7,6.93.07,12.64.13,25.29,0,37.93-.09,8-5.58,11.32-12.43,7.72A7.78,7.78,0,0,0,68,83.29c-6.16,0-12.31-.06-18.47,0-2.4,0-4.56.1-7,1.55C38.09,87.48,32.36,83.11,32.26,77c-.22-13.14-.1-26.29,0-39.43,0-4.3,2.42-6.34,6.62-6.36C45.32,31.2,51.81,31.22,58.3,31.23Z"/><path class="c" d="M57.92,76.47c-5,0-10-.06-15,0-2.75.05-4-1.25-4-3.88q0-15.48,0-31c0-2.48,1.23-3.71,3.66-3.72,10.49,0,21,0,31.46,0,2.49,0,3.52,1.48,3.51,3.87q0,15.48,0,31c0,2.74-1.49,3.78-4.14,3.74C68.24,76.42,63.08,76.47,57.92,76.47Z"/><path class="d" d="M41.39,56.08c.48-4.41-2.34-11.64,1.09-14.72,3-2.69,10.08-.85,15.37-.92,4.64-.06,9.3.13,13.94-.06,2.7-.1,3.38.93,3.34,3.47q-.18,13.2,0,26.4c0,2.72-.63,3.85-3.57,3.8-9-.15-17.94-.13-26.9,0-2.69,0-3.41-1-3.32-3.53C41.51,66,41.39,61.56,41.39,56.08Z"/><path class="e" d="M58.12,68.67A11.56,11.56,0,0,1,46.65,57.32,11.88,11.88,0,0,1,58.37,45.56a11.89,11.89,0,0,1,11.46,11.5A11.52,11.52,0,0,1,58.12,68.67Z"/><path class="f" d="M51.45,61.1c-1.66-2.62-1.79-5.16.08-7.75C56.71,57.28,56.71,57.28,51.45,61.1Z"/><path class="g" d="M54.38,50.33c2.68-1.61,5.2-1.38,7.92,0C58.11,55.66,58.11,55.66,54.38,50.33Z"/><path class="h" d="M65,61.11c-5.25-3.87-5.25-3.87-.08-7.78C66.88,55.93,66.64,58.49,65,61.11Z"/><path class="i" d="M62.29,64c-2.78,1.68-5.26,1.75-7.76.18C57.77,58.75,57.94,58.74,62.29,64Z"/></svg>