<svg xmlns="http://www.w3.org/2000/svg" viewBox="0 0 116.74 116.72"><defs><style>.a{fill:#19323f;}.b{fill:#fafbfb;}.c{fill:#f8f9fa;}.d{fill:#f2f4f4;}.e{fill:#f2f4f5;}.f{fill:#eff1f1;}</style></defs><path class="a" d="M58.55,0a58.36,58.36,0,1,1-.7,116.72C25.89,116.64,0,90.45,0,58.26A58.23,58.23,0,0,1,58.55,0Z"/><path class="b" d="M58.81,68c-3.15-.81-8.39,2.39-7.75-5,.56-6.66,2-9,7.73-8.92s6.92,2.32,7.44,9.16C66.76,70.24,61.81,67.2,58.81,68Z"/><path class="c" d="M58.59,79.86H55.11c-5.21,0-7-2.56-5.48-7.59.49-1.66,1.56-1.42,2.64-1.43,3.48,0,7,.26,10.43-.09,4-.41,5.15,1,4.94,4.91-.16,3-.56,4.77-4.09,4.24A34.17,34.17,0,0,0,58.59,79.86Z"/><path class="d" d="M31.14,53.25c.35-7.7,6.39-14.79,13.56-16.16,1.54-.29,3.27-.52,3.83,1.26.62,2-1,2.33-2.59,2.73-6.55,1.69-10.12,6-10.71,12.71-.14,1.57.43,3.87-2.07,3.63S31.27,54.76,31.14,53.25Z"/><path class="d" d="M85.35,53.5c-.12,1.58.41,3.81-1.87,4s-2.16-1.92-2.22-3.63C81,47.2,77.5,43.08,71.25,41.2c-1.56-.47-3.77-.46-3.09-2.84.62-2.17,2.63-1.48,4.23-1.1A17,17,0,0,1,85.35,53.5Z"/><path class="e" d="M40,54.05c.07-4.11,3.88-8.54,7.8-9.08,1.19-.16,2.43-.22,2.95,1.12.64,1.62-.28,2.39-1.78,2.82-3,.87-4.83,2.74-4.92,6,0,1.49-.55,2.79-2.21,2.6C39.84,57.28,39.94,55.56,40,54.05Z"/><path class="f" d="M76.78,53.67c.13,1.94-.06,3.54-1.9,3.82s-2.16-1.13-2.21-2.57c-.13-3.26-2-5.14-5-6-1.59-.44-2.31-1.32-1.71-2.85s2.09-1.39,3.36-1A10.06,10.06,0,0,1,76.78,53.67Z"/></svg>