<svg xmlns="http://www.w3.org/2000/svg" viewBox="0 0 116.73 116.66"><defs><style>.a{fill:#19323f;}.b{fill:#fbfcfc;}.c{fill:#f8f9f9;}.d{fill:#eceff2;}</style></defs><path class="a" d="M58.15,116.66A58.33,58.33,0,1,1,116.73,58.5,58.3,58.3,0,0,1,58.15,116.66Z"/><path class="b" d="M31.73,45.2c12.22-3.47,24-6.93,35.88-10.07,1.51-.4,4-3,5,0s3.51,5.79.7,9.25c-1.74,2.14-3.94,2.86-6.33,3.59a76,76,0,0,0-7.54,2.56c-2.53,1.08-4.49.7-6-1.61-2-3.1-4.53-3.25-7.6-1.68-1.47.75-3.27.86-4.67,1.69C36.7,51.6,34,49.81,31.73,45.2Z"/><path class="c" d="M85.56,82.31c-2.16.08-3.87-1-4.28-2-2.74-6.69-8.45-2.78-12.73-3.81a1.5,1.5,0,0,0-2,1.55c0,2.13-1.06,3.09-3.14,2.59A3.34,3.34,0,0,1,60.76,77c.09-3.16.31-6.32.5-9.47.15-2.55,1.23-5.45-2.64-6.34-.25-.06-.47-.47-.61-.75-.31-.63-.43-1.44.35-1.66,3-.84,5.92-2.35,9.12-2.12,1.43.1,1,1.35.52,2.29a1.86,1.86,0,0,0-.19.46c-2.41,10-.23,12.1,10.12,10.34,2.34-.39,1.68-2,2.26-3.18a4.67,4.67,0,0,1,4.37-2.78c2,.24.9,2.47.94,3.78C85.64,72.38,85.56,77.2,85.56,82.31Z"/><path class="c" d="M44.81,61c-3.51-.88-3.29-4.7-4.64-7.21-1.18-2.22,1.52-2,2.62-2.53C46.47,49.36,50.15,48,53,52.63c1.23,2,3,1.53,4.83.93,4.09-1.34,8.22-2.55,12.31-3.9,1.76-.58,3.25-.79,4,1.38.92,2.77-1.76,2-2.66,2.29C62.75,56,54,58.38,44.81,61Z"/><path class="d" d="M39.72,57.77c.32,1.86-1,2.13-2.06,2.13-2.27,0-2.11-2.21-2.55-3.55s1.23-1.91,2.19-1.94C39.66,54.32,38.76,56.86,39.72,57.77Z"/></svg>